<svg xmlns="http://www.w3.org/2000/svg" xmlns:xlink="http://www.w3.org/1999/xlink" data-name="Layer 1" width="1130.0799560546875" height="738.1400146484375" style=""><rect id="backgroundrect" width="100%" height="100%" x="0" y="0" fill="none" stroke="none"/><defs><linearGradient id="a340ed46-1652-4aba-8925-cf57be9109ca" x1="-0.030162321403622627" y1="0.5025509595870972" x2="0.9698376655578613" y2="0.5025509595870972"><stop offset="0" stop-color="gray" stop-opacity="0.25"/><stop offset="0.54" stop-color="gray" stop-opacity="0.12"/><stop offset="1" stop-color="gray" stop-opacity="0.1"/></linearGradient></defs><title>pair programming</title><g class="currentLayer" style=""><title>Layer 1</title><path d="M584.4800009155274,132.74999969482423 c-71.37,12.06 -142.64,6.890000000000001 -211.2,-0.6300000000000001 s-136.95,-17.34 -208.35,-14.38 c-45.93,1.9 -97.08,11 -129.15,37.45 C4.910000915527341,180.62999969482422 0.10000091552734602,214.9599996948242 0.04000091552734375,245.9499996948242 c-0.08000000000000002,23.31 1.94,47.43 18.46,66 c11.48,12.88 29.15,22.11 42.46,34 c46.31,41.3 32.23,106.33 1.84,161.62 c-14.26,25.94 -31.7,51.45 -41.41,78 s-11,55 6.38,76.65 c17.22,21.47 50.53,33.57 85.26,39.84 c70.54,12.74 149.13,4.83 225.17,-5.890000000000001 C506.4900009155274,672.3599996948242 673.0400009155273,635.2399996948242 839.2300009155274,598.2099996948242 c61.49,-13.71 123.25,-27.48 182.49,-47.24 c32.9,-11 66.4,-24.69 87.65,-46 c27,-27 27.68,-63.93 1.6600000000000001,-86 c-43.66,-37 -142.48,-28.79 -176.25,-71.09 c-18.58,-23.29 -10.49,-54.92 4.3,-82.86 c31.71,-59.92 93,-119.12 85.06,-178.86 c-5.48,-41 -47.29,-74.93 -103.33,-83.77 c-58.74,-9.26 -134.18,8.3 -168,49.56 C718.0400009155273,94.4599996948242 647.5000009155274,122.06999969482422 584.4800009155274,132.74999969482423 z" fill="#009900" opacity="0.1" id="svg_1" class="" fill-opacity="1"/><rect x="360" y="359.239990234375" width="283.42999267578125" height="65.62999725341797" fill="#565661" id="svg_2"/><rect x="360" y="359.239990234375" width="283.42999267578125" height="65.62999725341797" opacity="0.1" id="svg_3"/><polygon points="393.91 427.03 395.9 602.24 368.64 671.06 366.53 427.03 393.91 427.03" fill="#bcbec9" id="svg_4"/><polygon points="362.99 371.84 638.94 373.5 638.94 422.38 362.99 422.38 362.99 371.84" fill="#565661" id="svg_5"/><polygon points="615.33 427.03 638.94 430.36 638.94 668.4 615.33 595.59 615.33 427.03" fill="#bcbec9" id="svg_6"/><rect x="647.9099731445312" y="361.8699951171875" width="132.99000549316406" height="282.6000061035156" fill="#efeff0" id="svg_7"/><rect x="658.5499877929688" y="369.7200012207031" width="111.70999908447266" height="217.22999572753906" fill="#565661" id="svg_8"/><rect x="658.5499877929688" y="369.7200012207031" width="111.70999908447266" height="217.22999572753906" opacity="0.1" id="svg_9"/><rect x="658.5499877929688" y="374.1700134277344" width="111.70999908447266" height="48.209999084472656" fill="#565661" id="svg_10"/><rect x="658.5499877929688" y="427.0299987792969" width="111.70999908447266" height="102.4000015258789" fill="#565661" id="svg_11"/><rect x="658.5499877929688" y="535.75" width="111.70999908447266" height="102.4000015258789" fill="#565661" id="svg_12"/><rect x="658.5499877929688" y="535.75" width="111.70999908447266" height="102.4000015258789" opacity="0.1" id="svg_13"/><ellipse cx="663.2100219726562" cy="653.6699829101562" rx="7.199999809265137" ry="9.199999809265137" fill="#565661" id="svg_14"/><ellipse cx="763.0599975585938" cy="654.1099853515625" rx="7.199999809265137" ry="9.199999809265137" fill="#565661" id="svg_15"/><polygon points="359 671.06 368.64 671.06 365.99 364.32 351.35 364.32 359 671.06" fill="#efeff0" id="svg_16"/><polygon points="638.94 361.87 638.94 668.4 647.91 668.4 647.91 364.32 638.94 361.87" fill="#efeff0" id="svg_17"/><polygon points="366.46 419.38 366.46 430.36 638.94 430.36 638.94 422.38 366.46 419.38" fill="#efeff0" id="svg_18"/><polygon points="384.93 341.26 730.37 341.26 780.57 357.88 780.57 367.52 349.69 364.2 349.69 354.39 384.93 341.26" fill="#fff" id="svg_19"/><polygon points="349.69 354.39 780.57 357.88 780.57 367.52 349.69 364.2 349.69 354.39" fill="#bcbec9" id="svg_20"/><path d="M388.72000091552735,468.7099996948242 l-2,-0.30000000000000004 c0,-0.09000000000000002 0,-0.17 0,-0.25 c-0.06000000000000001,-0.47000000000000003 -0.13,-0.93 -0.2,-1.4 c0.8200000000000001,0.6500000000000001 1.6,1.3 2.3200000000000003,1.9500000000000002 z" fill="url(#a340ed46-1652-4aba-8925-cf57be9109ca)" id="svg_21"/><path d="M345.26000091552737,623.1199996948242 c1.3,-0.30000000000000004 2.62,-0.55 3.94,-0.7300000000000001 a47.42,47.42 0 0 1 26.62,3.92 c-0.8400000000000001,6.18 -1.6700000000000002,12.57 0.11000000000000001,18.54 c1.24,4.2 3.73,8 4.26,12.38 a7.3,7.3 0 0 1 5.75,5.08 a11.05,11.05 0 0 1 0.5700000000000001,3.56 a19,19 0 0 1 -0.56,4.44 a4.48,4.48 0 0 1 -4.8,4 c-7.74,0.8800000000000001 -15.33,-2.17 -22.53,-5.16 l-14,-5.82 c-1.6400000000000001,-0.6800000000000002 -3.29,-1.37 -4.86,-2.21 a26.63,26.63 0 0 1 -7.79,-6.37 A3.55,3.55 0 0 1 331.04000091552734,653.0699996948242 c-0.26,-1.7600000000000002 1.8,-2.81 3.11,-4 a6.23,6.23 0 0 0 1,-1.22 c1.55,-2.34 1.7000000000000002,-5.57 2.63,-8.33 c2.2,-6.55 9,-10.77 11.4,-17.16 c0.13,-0.35000000000000003 0.25,-0.7000000000000001 0.35000000000000003,-1.06 " fill="#a26565" id="svg_22"/><path d="M386.51000091552737,665.8699996948242 a19,19 0 0 1 -0.56,4.44 a4.48,4.48 0 0 1 -4.8,4 c-7.74,0.8800000000000001 -15.33,-2.17 -22.53,-5.16 l-14,-5.82 c-1.6400000000000001,-0.6800000000000002 -3.29,-1.37 -4.86,-2.21 a26.63,26.63 0 0 1 -7.79,-6.37 A3.55,3.55 0 0 1 331.04000091552734,653.0699996948242 c-0.26,-1.7600000000000002 1.8,-2.81 3.11,-4 a6.23,6.23 0 0 0 1,-1.22 c3.8600000000000003,0.8300000000000001 8.65,3.26 11.6,4.2 a35.22,35.22 0 0 1 8.44,3.5300000000000002 c3.68,2.36 6.33,6 9.45,9 s7.15,5.73 11.5,5.36 a19,19 0 0 0 6.54,-2.26 z" opacity="0.1" id="svg_23"/><path d="M370.1200009155273,523.7599996948243 a4.63,4.63 0 0 1 -1.7000000000000002,5 c-1.31,0.81 -3,0.7000000000000001 -4.3,1.58 c-1.61,1.13 -1.84,3.37 -2.12,5.3100000000000005 c-1,6.67 -4.3100000000000005,12.72 -7.14,18.85 s-5.22,12.82 -4.18,19.48 c0.7100000000000001,4.52 2.93,9.34 0.8500000000000001,13.41 c-0.51,1 -1.27,1.8900000000000001 -1.85,2.8600000000000003 c-2.85,4.76 -1.23,10.79 -1.34,16.33 a3.23,3.23 0 0 1 -0.39000000000000007,1.77 a4.890000000000001,4.890000000000001 0 0 1 -1.58,1.22 a8.38,8.38 0 0 0 -3.41,6.43 a24.57,24.57 0 0 0 0.9,7.46 a4.44,4.44 0 0 0 1.23,2.6 a4.6,4.6 0 0 0 2.6900000000000004,0.7600000000000001 A59.84,59.84 0 0 1 366.04000091552734,631.2599996948243 c3.79,1.58 7.47,3.56 11.5,4.32 a3,3 0 0 0 2.36,-0.25 a3.25,3.25 0 0 0 1,-1.73 c1.55,-5.1 3.12,-10.36 2.59,-15.66 c-0.23,-2.2800000000000002 -0.8400000000000001,-4.51 -1,-6.79 c-0.7000000000000001,-9 5.39,-17.12 7.32,-26 c0.8700000000000001,-4 0.8700000000000001,-8.14 1.49,-12.18 c1.6800000000000002,-11.07 7.78,-21 10.13,-31.95 a34.73,34.73 0 0 1 1.52,-6 c1.75,-4.24 5.8,-7.68 5.890000000000001,-12.27 a4.78,4.78 0 0 0 -0.7600000000000001,-2.8600000000000003 a6.48,6.48 0 0 0 -3.5700000000000003,-2 a121.87,121.87 0 0 0 -16.55,-3.34 a31.35,31.35 0 0 0 -7.78,-0.54 a22.9,22.9 0 0 0 -9.52,3.36 C366.80000091552733,519.7499996948242 369.28000091552735,520.3199996948242 370.1200009155273,523.7599996948243 z" fill="#454b69" id="svg_24"/><path d="M370.1200009155273,523.7599996948243 a4.63,4.63 0 0 1 -1.7000000000000002,5 c-1.31,0.81 -3,0.7000000000000001 -4.3,1.58 c-1.61,1.13 -1.84,3.37 -2.12,5.3100000000000005 c-1,6.67 -4.3100000000000005,12.72 -7.14,18.85 s-5.22,12.82 -4.18,19.48 c0.7100000000000001,4.52 2.93,9.34 0.8500000000000001,13.41 c-0.51,1 -1.27,1.8900000000000001 -1.85,2.8600000000000003 c-2.85,4.76 -1.23,10.79 -1.34,16.33 a3.23,3.23 0 0 1 -0.39000000000000007,1.77 a4.890000000000001,4.890000000000001 0 0 1 -1.58,1.22 a8.38,8.38 0 0 0 -3.41,6.43 a24.57,24.57 0 0 0 0.9,7.46 a4.44,4.44 0 0 0 1.23,2.6 a4.6,4.6 0 0 0 2.6900000000000004,0.7600000000000001 A59.84,59.84 0 0 1 366.04000091552734,631.2599996948243 c3.79,1.58 7.47,3.56 11.5,4.32 a3,3 0 0 0 2.36,-0.25 a3.25,3.25 0 0 0 1,-1.73 c1.55,-5.1 3.12,-10.36 2.59,-15.66 c-0.23,-2.2800000000000002 -0.8400000000000001,-4.51 -1,-6.79 c-0.7000000000000001,-9 5.39,-17.12 7.32,-26 c0.8700000000000001,-4 0.8700000000000001,-8.14 1.49,-12.18 c1.6800000000000002,-11.07 7.78,-21 10.13,-31.95 a34.73,34.73 0 0 1 1.52,-6 c1.75,-4.24 5.8,-7.68 5.890000000000001,-12.27 a4.78,4.78 0 0 0 -0.7600000000000001,-2.8600000000000003 a6.48,6.48 0 0 0 -3.5700000000000003,-2 a121.87,121.87 0 0 0 -16.55,-3.34 a31.35,31.35 0 0 0 -7.78,-0.54 a22.9,22.9 0 0 0 -9.52,3.36 C366.80000091552733,519.7499996948242 369.28000091552735,520.3199996948242 370.1200009155273,523.7599996948243 z" opacity="0.05" id="svg_25"/><polygon points="350.55 674.47 342.02 674.47 336.44 559.83 336.05 553.31 343.3 550.76 343.79 557.69 350.55 674.47" fill="#565661" id="svg_26"/><polygon points="343.79 557.69 336.44 559.83 336.05 553.31 343.3 550.76 343.79 557.69" opacity="0.1" id="svg_27"/><polygon points="457.58 698.72 443.51 700.42 378.69 553.31 361.21 552.03 330.51 560.99 324.54 736.14 310.47 736.14 316.01 554.59 282.32 555.45 222.2 705.11 209.41 705.11 272.64 530.2 275.08 523.46 369.31 520.23 392.8 533.4 393.1 534.16 457.58 698.72" fill="#565661" id="svg_28"/><path d="M393.10000091552735,534.1599996948243 c-20.25,6.1 -41.27,12.76 -41.27,12.76 s-19.17,6.69 -27.29,0 a12.27,12.27 0 0 0 -3.39,-1.87 a16.7,16.7 0 0 0 3.39,1.87 l-51.9,-16.73 l2.43,-6.73 l94.24,-3.23 l23.49,13.17 z" opacity="0.1" id="svg_29"/><path d="M297.2500009155273,505.12999969482416 l38.37,-8.53 s91.68,17.06 98.5,23.88 c0,0 -73.34,14.92 -81.44,20 S296.39000091552737,551.1799996948242 297.2500009155273,505.12999969482416 z" fill="#fff" id="svg_30"/><path d="M280.7500009155273,409.23999969482423 c-3,9.51 -11.19,18.08 -21.16,18.49 a3.6900000000000004,3.6900000000000004 0 0 1 -2.11,-0.38000000000000006 c-1.25,-0.78 -1.28,-2.6100000000000003 -0.77,-4 s1.4,-2.64 1.54,-4.1 a2.68,2.68 0 0 0 -0.06000000000000001,-0.8900000000000001 c-0.26,-1.19 -1.23,-2.25 -2.37,-2 a4,4 0 0 0 0.8500000000000001,-5.3100000000000005 a12,12 0 0 1 -1.22,-1.6400000000000001 c-0.8300000000000001,-1.7000000000000002 0.46,-3.6100000000000003 1,-5.43 c1.11,-4 -1.71,-8 -1.94,-12.17 c-0.2,-3.73 1.6900000000000002,-7.24 2.16,-10.94 c0.7500000000000001,-6 -2.23,-11.75 -2.58,-17.74 c-0.24000000000000002,-4.18 0.79,-8.32 1.94,-12.35 c1,-3.6 2.13,-7.24 2.2,-11 c0,-2.73 -0.47000000000000003,-5.43 -0.6000000000000001,-8.15 a14.19,14.19 0 0 1 1.31,-7.24 a5.79,5.79 0 0 1 3.29,-2.81 c3.2800000000000002,-1.1 5.43,0.6100000000000001 5.91,3.72 c0.8,5.29 0.3400000000000001,10.69 1.3900000000000001,16 a75,75 0 0 0 4.39,14.49 c1.77,4.22 3.92,8.3 5.28,12.67 a69.8,69.8 0 0 1 2.19,11 C282.73000091552734,389.4499996948242 283.78000091552735,399.72999969482424 280.7500009155273,409.23999969482423 z" fill="#00ca8a" id="svg_31" class="" fill-opacity="1"/><path d="M508.51000091552737,651.2799996948243 a15.51,15.51 0 0 1 -10.93,6.44 c-4.34,0.54 -8.85,-0.55 -13.06,0.6400000000000001 a4,4 0 0 0 -3,2.31 a24.54,24.54 0 0 0 -0.19000000000000003,2.45 c-0.49000000000000005,2.67 -4,3.27 -6.73,3.25 l-11.26,-0.07 c-2.34,0 -4.93,-0.13 -6.61,-1.75 a4.92,4.92 0 0 1 -0.1,-6.48 a4.07,4.07 0 0 1 1.26,-1 a4,4 0 0 1 -2.7,-3.21 a11.94,11.94 0 0 1 0.21000000000000002,-4.41 c0,-4.18 1,-11.18 3.94,-14.45 c3.6100000000000003,-4.07 9.870000000000001,-9.33 15.32,-10.42 A12,12 0 0 1 485.04000091552734,627.5299996948243 c2.58,2.4 4.46,6.16 8,6.58 c1.9300000000000002,0.24000000000000002 3.79,-0.6700000000000002 5.7,-1 a10.61,10.61 0 0 1 10.81,5.71 a11.26,11.26 0 0 1 1,3.13 A13,13 0 0 1 508.51000091552737,651.2799996948243 z" fill="#a26565" id="svg_32"/><path d="M508.51000091552737,651.2799996948243 a15.51,15.51 0 0 1 -10.93,6.44 c-4.34,0.54 -8.85,-0.55 -13.06,0.6400000000000001 a4,4 0 0 0 -3,2.31 a24.54,24.54 0 0 0 -0.19000000000000003,2.45 c-0.49000000000000005,2.67 -4,3.27 -6.73,3.25 l-11.26,-0.07 c-2.34,0 -4.93,-0.13 -6.61,-1.75 a4.92,4.92 0 0 1 -0.1,-6.48 c6.5,-0.27 12.89,0 19.37,-1.34 c2.63,-0.53 5.22,-1.23 7.88,-1.6 c5.76,-0.8200000000000001 11.89,-0.12000000000000001 17.18,-2.56 c4.41,-2 7.57,-6.07 9.44,-10.61 A13,13 0 0 1 508.51000091552737,651.2799996948243 z" opacity="0.1" id="svg_33"/><path d="M478.80000091552733,635.4699996948242 c-4,3.1 -8.69,5.52 -13.73,5.78 s-10.39,-2 -12.86,-6.38 c-3.6100000000000003,-6.43 -0.41000000000000003,-15.37 -4.83,-21.27 c-1.3800000000000001,-1.85 -3.37,-3.16 -4.83,-4.95 s-2.3,-4.48 -1,-6.38 c-1.57,0.6000000000000001 -3.23,-0.92 -3.6900000000000004,-2.54 s-0.17,-3.36 -0.45,-5 c-0.7300000000000001,-4.35 -5,-7.14 -7.05,-11 s-1.77,-8.870000000000001 -2,-13.44 a51,51 0 0 0 -11.8,-30.35 c-1.36,-1.62 -3.1,-3.27 -5.22,-3.19 c0.37000000000000005,-3.66 -2.07,-7.16 -5.23,-9 s-6.92,-2.46 -10.58,-2.8200000000000003 c-36.93,-3.64 -75.41,10.09 -110.67,-1.46 c-9.81,-3.21 -19.27,-8.58 -25.27,-17 a29.72,29.72 0 0 1 -5.29,-22.48 l0,-0.14 c1.3900000000000001,-7.1 5.14,-8.85 11.35,-12.09 A136.24,136.24 0 0 1 288.04000091552734,462.3699996948242 c15,-4.69 31.15,-6.38 46.63,-2.94 c7.23,1.62 14.2,4.3 21.44,5.87 c2.85,0.6200000000000001 5.72,1.06 8.61,1.4300000000000002 c4.49,0.56 9,0.93 13.52,1.45 a204.53,204.53 0 0 1 42.46,9.55 c5.13,1.7400000000000002 10.26,3.73 14.67,6.88 A32.5,32.5 0 0 1 448.41000091552735,506.0699996948242 c0.42000000000000004,2.94 0.43000000000000005,6 1.07,8.85 a45,45 0 0 0 2.4,7 a465.63,465.63 0 0 1 20.89,65 a15.79,15.79 0 0 0 1.6700000000000002,4.7 c1.28,2.07 3.48,3.46 4.77,5.53 c3,4.88 0.11000000000000001,11.69 2.77,16.77 c0.92,1.7600000000000002 2.45,3.15 3.37,4.91 C488.3500009155273,624.5999996948242 483.92000091552734,631.4999996948242 478.80000091552733,635.4699996948242 z" fill="#454b69" id="svg_34"/><path d="M427.70000091552737,520.5699996948242 a16.5,16.5 0 0 0 3.63,-4 a7.46,7.46 0 0 0 1.1,-5.17 a14.79,14.79 0 0 1 -3.89,12.72 c-2.51,2.5700000000000003 -7.22,5.09 -10.89,4.21 C418.17000091552734,525.3899996948243 425.3700009155273,522.5499996948242 427.70000091552737,520.5699996948242 z" opacity="0.1" id="svg_35"/><path d="M365.22000091552735,470.7299996948242 a6.71,6.71 0 0 1 -4.44,4.58 a18.5,18.5 0 0 1 -6.59,0.77 l-2,0 c-26.24,-0.5800000000000001 -52.76,-6.4 -78.39,-0.8500000000000001 a56.76,56.76 0 0 0 -9.06,2.67 a40.9,40.9 0 0 0 -10.41,6 l0,-0.14 c1.3900000000000001,-7.1 5.14,-8.85 11.35,-12.09 A136.24,136.24 0 0 1 288.04000091552734,462.3699996948242 c15,-4.69 31.15,-6.38 46.63,-2.94 c7.23,1.62 14.2,4.3 21.44,5.87 c2.85,0.6200000000000001 5.72,1.06 8.61,1.4300000000000002 A6.91,6.91 0 0 1 365.22000091552735,470.7299996948242 z" opacity="0.1" id="svg_36"/><path d="M365.22000091552735,469.29999969482424 a6.7,6.7 0 0 1 -4.44,4.59 a18.27,18.27 0 0 1 -6.59,0.7600000000000001 l-2,0 c-26.24,-0.5800000000000001 -52.76,-6.4 -78.39,-0.8500000000000001 a57.78,57.78 0 0 0 -9.06,2.66 a41.2,41.2 0 0 0 -10.85,6.4 q-1.15,-3.16 -2.29,-6.33 c-0.92,-2.52 2,-3.08 2.56,-5.34 c0.37000000000000005,-1.53 -0.26,-3.27 -0.5800000000000001,-4.9 a8.55,8.55 0 0 1 -0.16000000000000003,-1.21 c-0.18000000000000002,-3.6100000000000003 1.11,-5.69 4.07,-7.640000000000001 c8.78,-5.8 19.49,-9.78 29.51,-12.77 a73,73 0 0 1 16.4,-3.18 c7.88,-0.46 15.75,1 23.42,2.85 c9.43,2.33 18.76,5.41 27.12,10.34 C358.04000091552734,457.0699996948242 362.04000091552734,460.0699996948242 364.2500009155273,464.3299996948242 A7.6,7.6 0 0 1 365.22000091552735,469.29999969482424 z" fill="#a26565" id="svg_37"/><path d="M280.7500009155273,409.23999969482423 c-3,9.51 -11.19,18.08 -21.16,18.49 a3.6900000000000004,3.6900000000000004 0 0 1 -2.11,-0.38000000000000006 c-1.25,-0.78 -1.28,-2.6100000000000003 -0.77,-4 s1.4,-2.64 1.54,-4.1 a2.68,2.68 0 0 0 -0.06000000000000001,-0.8900000000000001 c5.29,-7.46 10.42,-15 12.45,-23.83 a12.74,12.74 0 0 0 0.37000000000000005,-4.67 c-0.27,-1.8 -1.18,-3.43 -1.6800000000000002,-5.17 c-0.8800000000000001,-3.08 -0.47000000000000003,-6.34 -0.22000000000000003,-9.53 A88,88 0 0 0 262.27000091552736,334.0699996948242 c-1.35,-3.12 -2.89,-6.28 -3.36,-9.61 a5.79,5.79 0 0 1 3.29,-2.81 c3.2800000000000002,-1.1 5.43,0.6100000000000001 5.91,3.72 c0.8,5.29 0.3400000000000001,10.69 1.3900000000000001,16 a75,75 0 0 0 4.39,14.49 c1.77,4.22 3.92,8.3 5.28,12.67 a69.8,69.8 0 0 1 2.19,11 C282.73000091552734,389.4499996948242 283.78000091552735,399.72999969482424 280.7500009155273,409.23999969482423 z" opacity="0.1" id="svg_38"/><path d="M365.22000091552735,469.29999969482424 a6.7,6.7 0 0 1 -4.44,4.59 a18.27,18.27 0 0 1 -6.59,0.7600000000000001 l-2,0 a43.57,43.57 0 0 0 -29,-7 c-3.26,0.39000000000000007 -6.52,1.15 -9.78,0.8500000000000001 c-6.59,-0.6000000000000001 -11.93,-5.34 -17.8,-8.37 a37.38,37.38 0 0 0 -41.43,5.62 l-0.5700000000000001,0.5 a8.55,8.55 0 0 1 -0.16000000000000003,-1.21 c-0.18000000000000002,-3.6100000000000003 1.11,-5.69 4.07,-7.640000000000001 c8.78,-5.8 19.49,-9.78 29.51,-12.77 a73,73 0 0 1 16.4,-3.18 c7.88,-0.46 15.75,1 23.42,2.85 c9.43,2.33 18.76,5.41 27.12,10.34 C358.04000091552734,457.0699996948242 362.04000091552734,460.0699996948242 364.2500009155273,464.3299996948242 A7.6,7.6 0 0 1 365.22000091552735,469.29999969482424 z" opacity="0.1" id="svg_39"/><path d="M387.65000091552736,359.7599996948242 l-0.14,0.36000000000000004 c-2.24,5.8100000000000005 -6.36,10.72 -9,16.38 c-3.33,7.17 -4.15,15.21 -4.890000000000001,23.09 c-0.6400000000000001,6.75 -1.27,13.54 -0.7600000000000001,20.31 c1.28,16.68 9.43,32.5 11.61,48.86 a54.31,54.31 0 0 1 0.41000000000000003,11.41 c-0.18000000000000002,2.41 -0.6200000000000001,5 -2.22,6.78 s-4.71,2.48 -6.43,0.77 c0.77,-1.47 1.55,-2.93 2.33,-4.4 c-4.57,-3.55 -11.45,-1 -16.79,-3.22 c-2.35,-1 -4.23,-2.8 -6.2,-4.41 a43.48,43.48 0 0 0 -32.39,-9.46 c-3.26,0.4 -6.52,1.1600000000000001 -9.78,0.8600000000000001 c-6.59,-0.6100000000000001 -11.93,-5.34 -17.8,-8.37 a37.4,37.4 0 0 0 -41.43,5.61 c-1.4,1.3 -3.2800000000000002,2.8200000000000003 -5,2 a4.16,4.16 0 0 1 -1.55,-1.6900000000000002 c-6.55,-11.19 -1.73,-25.62 5.27,-36.52 S269.16000091552735,407.16999969482424 272.04000091552734,394.53999969482425 a12.53,12.53 0 0 0 0.37000000000000005,-4.67 c-0.27,-1.8 -1.18,-3.43 -1.6800000000000002,-5.17 c-0.8800000000000001,-3.08 -0.47000000000000003,-6.34 -0.22000000000000003,-9.53 A88,88 0 0 0 263.6900009155273,334.0699996948242 c-1.6,-3.73 -3.5,-7.51 -3.5,-11.56 c0,-6.38 4.57,-11.67 8.35,-16.8 c4.35,-5.9 8,-12.43 13.51,-17.28 c5.22,-4.61 12.78,-7.43 19.24,-5.09 A119.94,119.94 0 0 1 334.85000091552735,280.0699996948242 c3.9,0.18000000000000002 7.93,0.5900000000000001 11.35,2.48 c3.66,2 6.29,5.5600000000000005 9.89,7.69 c2.63,1.57 5.66,2.31 8.52,3.41 A35.21,35.21 0 0 1 382.97000091552735,310.0699996948242 c4,7.75 5,16.66 5.88,25.34 C389.6900009155273,343.5799996948242 390.49000091552733,352.0699996948242 387.65000091552736,359.7599996948242 z" fill="#eb5d1e" id="svg_40" class=""/><path d="M387.65000091552736,359.7599996948242 l-0.14,0.3600000000000001 c-2.24,5.8100000000000005 -6.36,10.72 -9,16.38 c-3.33,7.17 -4.15,15.21 -4.8900000000000015,23.09 c-0.6400000000000002,6.75 -1.27,13.54 -0.7600000000000002,20.31 c1.28,16.68 9.43,32.5 11.61,48.86 a54.31,54.31 0 0 1 0.4100000000000001,11.41 c-0.18000000000000005,2.41 -0.6200000000000002,5 -2.22,6.78 s-4.71,2.48 -6.43,0.77 c0.77,-1.47 1.55,-2.93 2.33,-4.4 c-4.57,-3.55 -11.45,-1 -16.79,-3.22 c-2.35,-1 -4.23,-2.8 -6.2,-4.41 a43.48,43.48 0 0 0 -32.39,-9.46 c-3.26,0.4 -6.52,1.1600000000000001 -9.78,0.8600000000000002 c-6.59,-0.6100000000000002 -11.93,-5.34 -17.8,-8.37 a37.4,37.4 0 0 0 -41.43,5.61 c-1.4,1.3 -3.2800000000000002,2.8200000000000003 -5,2 a4.16,4.16 0 0 1 -1.55,-1.6900000000000004 c-6.55,-11.19 -1.73,-25.62 5.27,-36.52 S269.16000091552735,407.16999969482424 272.04000091552734,394.53999969482425 a12.53,12.53 0 0 0 0.3700000000000001,-4.67 c-0.27,-1.8 -1.18,-3.43 -1.6800000000000004,-5.17 c-0.8800000000000002,-3.08 -0.4700000000000001,-6.34 -0.22000000000000006,-9.53 A88,88 0 0 0 263.6900009155273,334.0699996948242 c-1.6,-3.73 -3.5,-7.51 -3.5,-11.56 c0,-6.38 4.57,-11.67 8.35,-16.8 c4.35,-5.9 8,-12.43 13.51,-17.28 c5.22,-4.61 12.78,-7.43 19.24,-5.09 A119.94,119.94 0 0 1 334.85000091552735,280.0699996948242 c3.9,0.18000000000000005 7.93,0.5900000000000002 11.35,2.48 c3.66,2 6.29,5.5600000000000005 9.89,7.69 c2.63,1.57 5.66,2.31 8.52,3.41 A35.21,35.21 0 0 1 382.97000091552735,310.0699996948242 c4,7.75 5,16.66 5.88,25.34 C389.6900009155273,343.5799996948242 390.49000091552733,352.0699996948242 387.65000091552736,359.7599996948242 z" fill="#00ca8a" class="" id="svg_104" fill-opacity="1"/><path d="M372.86000091552734,419.8999996948242 c1.28,16.68 9.43,32.5 11.61,48.86 C380.11000091552734,465.0699996948242 374.04000091552734,461.3599996948242 373.23000091552734,457.0699996948242 c-0.9,-4.640000000000001 -3.7800000000000002,-10.72 -4.26,-15.41 s2.81,-10.42 -0.6400000000000001,-13.64 c-1.6800000000000002,-1.57 2.79,-1.13 1.15,-2.74 c-3.6900000000000004,-3.59 -4.6,-9.12 -4.83,-14.25 c-0.39000000000000007,-9.08 0.7600000000000001,-18.26 -0.91,-27.19 c-1,-5.51 -3.09,-10.76 -4.76,-16.11 c-1.94,-6.23 -3.34,-12.61 -4.74,-19 a133.12,133.12 0 0 1 -3,-17.26 c-0.43000000000000005,-5 -0.23,-10.3 2,-14.86 s6.74,-8.26 11.8,-8.19 c16.92,0.22000000000000003 14,23.16 17.72,33.76 c1.49,4.22 3.5,8.3 4.3100000000000005,12.7 a33.66,33.66 0 0 1 0.48000000000000004,5.22 c-2.24,5.8100000000000005 -6.36,10.72 -9,16.38 c-3.33,7.17 -4.15,15.21 -4.890000000000001,23.09 C372.98000091552734,406.3399996948242 372.35000091552735,413.1299996948242 372.86000091552734,419.8999996948242 z" opacity="0.1" id="svg_41"/><path d="M383.86000091552734,341.91999969482424 c1.49,4.22 3.5,8.3 4.3100000000000005,12.7 c1.35,7.37 -0.7400000000000001,15.2 1.53,22.34 a38.92,38.92 0 0 1 1.48,4.67 c0.39000000000000007,2.27 -0.06000000000000001,4.59 -0.06000000000000001,6.9 c0,3.72 1.17,7.32 2.21,10.89 a194.63,194.63 0 0 1 6.95,37.16 a46.59,46.59 0 0 0 1.59,10 a33.21,33.21 0 0 1 1.08,3.38 a17.48,17.48 0 0 1 0.19000000000000003,4.63 c-0.27,4.9 -0.8200000000000001,9.82 -0.27,14.7 s2.33,9.83 6,13.1 c-3.2800000000000002,0.7100000000000001 -6.75,1.42 -9.95,0.37000000000000005 c-4.5,-1.47 -7.2,-6 -9.49,-10.12 c-2.9,-5.26 -13.92,-10 -15.06,-15.91 c-0.8900000000000001,-4.63 -3.77,-10.71 -4.25,-15.41 s2.8,-10.41 -0.6500000000000001,-13.63 c-1.6700000000000002,-1.57 2.8,-1.1400000000000001 1.15,-2.74 c-3.68,-3.59 -4.59,-9.12 -4.82,-14.26 c-0.39000000000000007,-9.07 0.7500000000000001,-18.25 -0.91,-27.18 c-1,-5.51 -3.09,-10.76 -4.76,-16.12 c-1.94,-6.22 -3.34,-12.6 -4.74,-19 a131.73,131.73 0 0 1 -3,-17.26 c-0.43000000000000005,-5 -0.24000000000000002,-10.31 2,-14.870000000000001 s6.75,-8.25 11.8,-8.19 C383.04000091552734,308.36999969482423 380.14000091552737,331.3199996948242 383.86000091552734,341.91999969482424 z" fill="#00ca8a" id="svg_42" class="" fill-opacity="1"/><path d="M335.64000091552737,345.8299996948242 c1.58,1.85 3.6100000000000003,3.88 6,3.52 a1.3,1.3 0 0 1 -1.77,0.42000000000000004 a3.8,3.8 0 0 1 -1.33,-1.53 l-3.42,-5.77 c-0.45,-0.7500000000000001 -3.55,-5.12 -4.3100000000000005,-2.6 C330.51000091552737,340.9399996948242 334.8700009155273,344.92999969482423 335.64000091552737,345.8299996948242 z" opacity="0.1" id="svg_43"/><path d="M333.80000091552733,360.2199996948242 a7.62,7.62 0 0 0 -2.23,-5 a12.5,12.5 0 0 0 -4.13,-2.49 c-3.75,-1.54 -8.19,-2.7800000000000002 -12.26,-2.58 c1.48,2.16 6.23,3.45 8.61,4.67 Q328.85000091552735,357.42999969482423 333.80000091552733,360.2199996948242 z" opacity="0.1" id="svg_44"/><path d="M344.45000091552737,401.17999969482423 c-0.6900000000000002,5.12 -4.88,9 -9.12,12 s-9,5.58 -11.77,9.92 c-1.92,3 -2.7800000000000002,6.48 -4.41,9.61 c-1.8,3.45 -4.49,6.35 -6.640000000000001,9.59 s-3.83,7.11 -3.17,10.95 a1.29,1.29 0 0 0 0.46,0.92 a1.31,1.31 0 0 0 1.27,-0.14 c4.36,-2.2800000000000002 6.08,-7.49 7.91,-12 a138.65,138.65 0 0 1 6.48,-13.32 c1.08,-2 2.27,-4.18 4.28,-5.29 a37.55,37.55 0 0 1 4.22,-1.47 a14.19,14.19 0 0 0 5.21,-4.09 a34.34,34.34 0 0 0 8,-23.31 c-0.06000000000000001,-1.79 -0.16000000000000003,-10.41 -2.85,-7.75 S344.91000091552735,397.6999996948242 344.45000091552737,401.17999969482423 z" opacity="0.1" id="svg_45"/><path d="M351.04000091552734,204.80999969482423 c8.6,3.75 16,12 15.73,21.35 c-0.23,9.82 -8.45,19.07 -5.62,28.48 c1.6400000000000001,5.46 6.58,9.12 10.49,13.27 c14.89,15.76 14.86,43.27 -0.08000000000000002,59 c-5.72,6 -13.07,10.27 -19.12,16 c-21.33,20.1 -22.24,54.87 -10.82,81.86 a133.14,133.14 0 0 1 -26.62,3 c-4.19,0 -9.32,-0.7100000000000001 -10.84,-4.62 c-1.4,-3.6100000000000003 1,-8.49 -1.7600000000000002,-11.16 c-1.3,-1.25 -3.25,-1.42 -5,-1.71 c-11.26,-1.82 -20.5,-10.81 -24.72,-21.4 s-4,-22.51 -1.58,-33.65 c1.7200000000000002,-8.05 4.41,-16.91 0.42000000000000004,-24.11 c-5,-9.06 -19.38,-12.88 -19.16,-23.24 c0.18000000000000002,-8.49 10.19,-12.620000000000001 15.870000000000001,-18.93 c10.48,-11.620000000000001 5.49,-29.65 5.47,-45.31 c0,-13.78 4.82,-28 15.08,-37.18 C304.04000091552734,192.68999969482422 333.43000091552733,197.1599996948242 351.04000091552734,204.80999969482423 z" fill="#a26565" id="svg_46"/><g opacity="0.1" id="svg_47"><path d="M273.16000091552735,320.8499996948242 c-4.39,-7.92 -15.92,-11.84 -18.6,-19.63 a11.09,11.09 0 0 0 -2.16,6.26 c-0.22000000000000003,10.36 14.14,14.18 19.16,23.25 a18.89,18.89 0 0 1 2,10.42 C275.14000091552737,334.1899996948242 276.53000091552735,326.92999969482423 273.16000091552735,320.8499996948242 z" id="svg_48"/><path d="M362.30000091552733,241.81999969482422 c1.8,-5.25 4.41,-10.55 4.54,-16 a15,15 0 0 0 -0.05000000000000001,-1.77 C364.78000091552735,230.06999969482422 361.70000091552737,235.9099996948242 362.30000091552733,241.81999969482422 z" id="svg_49"/><path d="M274.8800009155273,269.78999969482425 c3.44,-10.870000000000001 0.47000000000000003,-24.35 0.46,-36.41 c0,-1.46 0.06000000000000001,-2.93 0.17,-4.39 a57.74,57.74 0 0 0 -1.78,14.26 C273.7500009155273,251.85999969482424 275.26000091552737,261.1999996948242 274.8800009155273,269.78999969482425 z" id="svg_50"/><path d="M373.23000091552734,316.67999969482423 c-5.72,6 -13.07,10.27 -19.12,16 c-10.8,10.17 -16.35,24.1 -17.74,38.87 c2.58,-11 7.79,-21.13 16.14,-29 c6,-5.7 13.4,-9.95 19.12,-16 a42.49,42.49 0 0 0 11.15,-27.06 A40.61,40.61 0 0 1 373.23000091552734,316.67999969482423 z" id="svg_51"/><path d="M316.67000091552734,417.5099996948242 c-4.19,0 -9.32,-0.7200000000000001 -10.84,-4.63 c-1.4,-3.6 1,-8.48 -1.7600000000000002,-11.16 c-1.3,-1.25 -3.26,-1.42 -5,-1.71 c-11.25,-1.81 -20.49,-10.81 -24.71,-21.39 c-3.11,-7.82 -3.7800000000000002,-16.35 -3,-24.77 c-0.08000000000000002,0.33000000000000007 -0.15000000000000002,0.6600000000000001 -0.22000000000000003,1 c-2.38,11.14 -2.63,23.07 1.58,33.66 s13.46,19.58 24.71,21.39 c1.78,0.29000000000000004 3.74,0.47000000000000003 5,1.71 c2.79,2.68 0.36000000000000004,7.5600000000000005 1.7600000000000002,11.16 c1.52,3.91 6.65,4.68 10.84,4.63 a133.23,133.23 0 0 0 26.62,-3 a89.38,89.38 0 0 1 -3.23,-8.93 A132.74,132.74 0 0 1 316.67000091552734,417.5099996948242 z" id="svg_52"/></g><path d="M349.42000091552734,373.8999996948242 c2.47,1.86 5.15,-5.23 3.62,-7 C352.6300009155273,367.35999969482424 349.04000091552734,373.6399996948242 349.42000091552734,373.8999996948242 z" opacity="0.1" id="svg_53"/><path d="M359.95000091552737,502.2399996948242 c2.91,-1 6,-2 7.9,-4.4 c1.57,-1.9300000000000002 2.8600000000000003,-9.59 -0.46,-5.92 C364.5700009155273,495.0699996948242 363.24000091552733,499.2199996948242 359.95000091552737,502.2399996948242 z" opacity="0.1" id="svg_54"/><path d="M389.58000091552736,494.2099996948242 c-0.35000000000000003,2.36 -1,4.8100000000000005 -2.67,6.51 c-0.31000000000000005,0.32000000000000006 -1,0.52 -1.09,0.09000000000000002 a25.29,25.29 0 0 0 5.16,-3.64 c3.38,-3.35 3.84,-11.6 -1.31,-13.79 C389.6200009155273,486.99999969482417 390.1300009155273,490.52999969482426 389.58000091552736,494.2099996948242 z" opacity="0.1" id="svg_55"/><path d="M425.15000091552736,479.3399996948242 s-28.38,-11.15 -38.64,-10 s11.620000000000001,17.32 11.620000000000001,17.32 l13.08,8.82 s8,-3 8.53,-3.23 S425.15000091552736,479.3399996948242 425.15000091552736,479.3399996948242 z" fill="#454b69" id="svg_56"/><path d="M229.88000091552732,359.7199996948242 s21.32,-12.36 49.46,3 s32.83,105.75 32.83,105.75 S300.66000091552735,560.5599996948242 345.04000091552734,540.0699996948242 c0,0 81,-25.15 89.11,-19.61 c0,0 7.68,0 -7.67,3.41 S351.83000091552736,546.0699996948242 351.83000091552736,546.0699996948242 s-19.17,6.7 -27.29,0 s-31.13,0.8600000000000001 -34.12,-45.2 a801,801 0 0 0 -10.66,-86.56 l-7.91,-23.45 z" fill="#565661" id="svg_57"/><path d="M227.32000091552732,502.13999969482427 s9.38,-93.38 -6,-127.07 c-13.38,-29.36 38.36,-15.63 51.86,-11.63 a9.83,9.83 0 0 1 5.18,3.7 c8,11.25 36.7,56.34 28.24,116.67 c0,0 -3.41,53.73 17.91,62.25 l-65.69,-21.16 c-5.33,-1.7200000000000002 -10.74,-3.15 -16.2,-4.39 C235.66000091552735,518.9299996948242 224.32000091552732,514.4399996948242 227.32000091552732,502.13999969482427 z" fill="#fff" id="svg_58"/><polygon points="694.53 676.47 703.06 676.47 708.65 561.83 709.03 555.31 701.78 552.76 701.3 559.69 694.53 676.47" fill="#565661" id="svg_59"/><polygon points="701.3 559.69 708.65 561.83 709.03 555.31 701.78 552.76 701.3 559.69" opacity="0.1" id="svg_60"/><path d="M623.3100009155273,632.1999996948242 a19.23,19.23 0 0 1 -1.2,4.58 a8.09,8.09 0 0 1 -3.6500000000000004,4.5600000000000005 a9.64,9.64 0 0 1 -3.6900000000000004,0.7300000000000001 c-4.71,0.28 -9.69,0.21000000000000002 -13.74,-2.19 a25,25 0 0 1 -4.71,-3.93 a214.9,214.9 0 0 1 -24.72,-29.4 c-1.23,-1.77 -2.5,-3.8600000000000003 -1.9500000000000002,-6 a93.21,93.21 0 0 0 26.77,-12.25 a12.92,12.92 0 0 1 3.7600000000000002,-2 a20.43,20.43 0 0 1 7.06,-0.26 c2.27,0.37000000000000005 2.37,0.44000000000000006 3.24,3 c1.44,4.33 1.2,9 2.8200000000000003,13.33 a41.3,41.3 0 0 0 3.74,6.84 C621.2200009155273,616.1999996948242 624.4300009155273,624.4499996948242 623.3100009155273,632.1999996948242 z" fill="#a26565" id="svg_61"/><path d="M623.3100009155273,632.1999996948242 a19.23,19.23 0 0 1 -1.2,4.58 a8.09,8.09 0 0 1 -3.6500000000000004,4.5600000000000005 a9.64,9.64 0 0 1 -3.6900000000000004,0.7300000000000001 c-4.71,0.28 -9.69,0.21000000000000002 -13.74,-2.19 a25,25 0 0 1 -4.71,-3.93 a214.9,214.9 0 0 1 -24.72,-29.4 c-1.23,-1.77 -2.5,-3.8600000000000003 -1.9500000000000002,-6 a92.81,92.81 0 0 0 9.16,-3.06 l0.15000000000000002,0.11000000000000001 c3.07,2.19 5.3,5.33 7.47,8.41 l7,9.85 a29,29 0 0 0 4.39,5.3 a29.38,29.38 0 0 0 6.79,4.08 c3.29,1.59 6.58,3.18 10,4.46 C616.8200009155273,630.5899996948242 620.5600009155273,630.9399996948242 623.3100009155273,632.1999996948242 z" opacity="0.1" id="svg_62"/><path d="M629.7700009155274,525.4099996948243 a30.1,30.1 0 0 1 -2.5,4.77 A204.16,204.16 0 0 0 605.9500009155273,580.0699996948242 c-1.3800000000000001,-0.31000000000000005 -2.16,1.57 -2.15,3 s0,3.23 -1.32,3.75 c-0.39000000000000007,0.15000000000000002 -0.8300000000000001,0.15000000000000002 -1.21,0.32000000000000006 c-0.8400000000000001,0.38000000000000006 -1.08,1.45 -1.2,2.37 l-1.18,8.66 c-0.41000000000000003,3 -0.77,6.25 0.7000000000000001,8.9 a14.23,14.23 0 0 0 3.87,4 l19.52,15.4 c0.8,0.6300000000000001 1.79,1.3 2.75,0.9500000000000001 c2.19,-0.8 0.25,-4.72 2,-6.3100000000000005 c1.1600000000000001,-1.09 3,-0.27 4.61,-0.4 c2.1,-0.16000000000000003 3.6900000000000004,-2.09 4.22,-4.12 a19.59,19.59 0 0 0 0.11000000000000001,-6.26 a5.68,5.68 0 0 1 0.32000000000000006,-2.81 a6.82,6.82 0 0 1 2.39,-2.29 a25.66,25.66 0 0 0 10.51,-21.64 a12,12 0 0 1 0.14,-3.83 a10.09,10.09 0 0 1 1.81,-3.16 c7.09,-9.59 13,-20 18.87,-30.39 c3.38,-6 6.82,-12.09 8,-18.85 a1.75,1.75 0 0 0 -1.44,-2.4 a68,68 0 0 0 -8.94,-2.14 c-9.19,-1.86 -18.06,-4.73 -27,-7.49 S632.4600009155273,518.1899996948242 629.7700009155274,525.4099996948243 z" fill="#454b69" id="svg_63"/><polygon points="587.5 700.72 601.58 702.42 666.39 555.31 683.87 554.03 714.58 562.99 720.54 738.14 734.61 738.14 729.07 556.59 762.76 557.45 822.88 707.11 835.67 707.11 772.44 532.2 770.01 525.46 675.77 522.23 652.28 535.4 651.98 536.16 587.5 700.72" fill="#565661" id="svg_64"/><path d="M651.9800009155274,536.1599996948243 c20.25,6.1 41.27,12.76 41.27,12.76 s19.17,6.69 27.29,0 a12.27,12.27 0 0 1 3.39,-1.87 a16.7,16.7 0 0 1 -3.39,1.87 l51.9,-16.73 L770.0400009155273,525.4599996948242 l-94.24,-3.23 l-23.49,13.17 z" opacity="0.1" id="svg_65"/><path d="M747.8300009155273,507.12999969482416 l-38.37,-8.53 s-91.68,17.06 -98.5,23.88 c0,0 73.34,14.92 81.44,20 S748.6900009155273,553.1799996948242 747.8300009155273,507.12999969482416 z" fill="#fff" id="svg_66"/><path d="M605.4500009155273,644.2099996948242 c-2.31,4.4 -8,5.640000000000001 -13,5.71 a54.89,54.89 0 0 1 -20.32,-3.63 c-3.7,-1.42 -7.25,-3.25 -11.07,-4.29 c-5.69,-1.56 -12,-1.4300000000000002 -17,-4.5600000000000005 a20,20 0 0 1 -6.39,-6.93 c-0.29000000000000004,-0.49000000000000005 -0.5700000000000001,-1 -0.8300000000000001,-1.52 c-2.39,-4.65 -3.5,-10.06 -2.17,-15.08 s6.16,-10.55 11.76,-10.47 c6.65,0.1 14.58,3.25 21,4.88 c8,2 16,4.3100000000000005 23.07,8.54 c5.92,3.56 11.15,8.67 13.94,14.91 a25.27,25.27 0 0 1 1.32,3.72 C606.6300009155274,638.3699996948242 606.8300009155273,641.5799996948242 605.4500009155273,644.2099996948242 z" fill="#a26565" id="svg_67"/><path d="M605.4500009155273,644.2099996948242 c-2.31,4.4 -8,5.640000000000001 -13,5.71 a54.89,54.89 0 0 1 -20.32,-3.63 c-3.7,-1.42 -7.25,-3.25 -11.07,-4.29 c-5.69,-1.56 -12,-1.4300000000000002 -17,-4.5600000000000005 a20,20 0 0 1 -6.39,-6.93 c-0.29000000000000004,-0.49000000000000005 -0.5700000000000001,-1 -0.8300000000000001,-1.52 c1,0.08000000000000002 1.92,0.18000000000000002 2.42,0.23 c6.14,0.5900000000000001 12,2.83 17.86,4.52 a100.32,100.32 0 0 0 25,3.9 c6,0.17 12.26,-0.27 17.5,-3.2 a45.91,45.91 0 0 1 4.86,-2.67 a25.27,25.27 0 0 1 1.32,3.72 C606.6300009155274,638.3699996948242 606.8300009155273,641.5799996948242 605.4500009155273,644.2099996948242 z" opacity="0.1" id="svg_68"/><path d="M648.4200009155273,454.0699996948242 c-13,-2.13 -26.24,-2.6500000000000004 -39.42,-3.17 l-16.12,-0.6400000000000001 a7.3100000000000005,7.3100000000000005 0 0 0 -3.39,0.41000000000000003 a22.09,22.09 0 0 0 -2.6500000000000004,2 c-1.62,1.1 -3.6900000000000004,1.22 -5.640000000000001,1.33 A280.77,280.77 0 0 0 540.0400009155273,459.3399996948242 c-7,1.4300000000000002 -14.27,3.3 -19.53,8.13 c-5.5600000000000005,5.11 -8,12.9 -8.19,20.44 s1.79,14.95 3.88,22.19 a101.09,101.09 0 0 1 4.37,26.86 a50.25,50.25 0 0 0 0.29000000000000004,7.57 a36.22,36.22 0 0 0 2.11,7 l7.36,19.65 c0.6500000000000001,1.7200000000000002 1.29,3.43 2,5.11 s1.3900000000000001,3 2,4.58 c0.9,2.16 1.61,4.4 2.3200000000000003,6.63 l4.9,15.39 l0.6400000000000001,2 c1.77,5.54 3.58,11.18 6.92,15.94 s8.51,8.6 14.32,8.89 a43.86,43.86 0 0 1 5.62,0.15000000000000002 a22.72,22.72 0 0 1 4.61,1.6700000000000002 a35.17,35.17 0 0 0 13.77,2.6900000000000004 c4.35,0 9.18,-1.21 11.54,-4.87 c1.3,-2 1.6400000000000001,-4.46 2,-6.82 c0.6300000000000001,-4.74 1.24,-9.69 -0.37000000000000005,-14.19 c-1,-2.6900000000000004 -2.68,-5 -3.84,-7.65 c-1.62,-3.6100000000000003 -2.15,-7.6 -3.2,-11.41 a43.58,43.58 0 0 0 -13.3,-21.16 a208.58,208.58 0 0 1 -5,-27.38 a24.09,24.09 0 0 0 -1.21,-6 c-1.17,-3 -3.54,-5.43 -4.53,-8.49 c-0.93,-2.84 -0.6500000000000001,-6.12 -2.34,-8.57 c14.07,3.87 28,3 42.61,2.77 a116.42,116.42 0 0 0 14,-0.8 a44,44 0 0 1 6.5600000000000005,-0.7000000000000001 c4.52,0 8.76,2 12.91,3.7600000000000002 c11.73,5 24.09,8.93 36.83,9.47 c13.15,0.55 26.15,-2.54 39,-5.6 c5.65,-1.35 11.52,-2.81 16,-6.52 s7,-10.4 4.24,-15.49 c-2.1,-3.83 -6.45,-5.71 -10.51,-7.3100000000000005 c-11.24,-4.44 -22.54,-8.77 -33.37,-14.14 C678.9100009155273,475.0699996948242 666.5400009155273,457.0699996948242 648.4200009155273,454.0699996948242 z" fill="#454b69" id="svg_69"/><path d="M625.2400009155274,408.8299996948242 c-1.57,3.4 -4.21,6.18 -6.16,9.38 a23.77,23.77 0 0 0 -3,17.65 a20.08,20.08 0 0 0 11.25,13.69 a28.23,28.23 0 0 0 7.8,1.8800000000000001 c3.52,0.43000000000000005 7.27,0.52 10.38,-1.18 A15.16,15.16 0 0 0 651.0400009155273,444.4699996948242 c2.6900000000000004,-4.5 4.22,-9.57 5.62,-14.620000000000001 c2.59,-9.32 4.8,-18.88 4.48,-28.55 c-0.11000000000000001,-3.33 -0.77,-7.08 -3.5300000000000002,-9 a11.870000000000001,11.870000000000001 0 0 0 -4.640000000000001,-1.52 l-13.19,-2.36 c-2.55,-0.46 -7,-2.33 -9.21,-0.49000000000000005 s-2.38,7.28 -2.7600000000000002,9.83 C627.2100009155273,401.5299996948242 626.8400009155273,405.35999969482424 625.2400009155274,408.8299996948242 z" fill="#a1616a" id="svg_70"/><path d="M785.5700009155273,370.1499996948242 L782.1200009155274,399.0699996948242 a133,133 0 0 0 -1.23,15.56 c0,2.9 0.09000000000000002,6.12 -1.83,8.29 a7.5600000000000005,7.5600000000000005 0 0 1 -3.44,2.07 c-4.19,1.3 -8.76,0.14 -12.76,-1.6500000000000001 c-2.34,-1 -4.73,-2.45 -5.79,-4.78 a11.88,11.88 0 0 1 -0.7500000000000001,-5.07 c0,-17.25 1.6300000000000001,-35.24 10.64,-49.94 a10.89,10.89 0 0 1 3.17,-3.66 c2.5,-1.6 5.77,-1.15 8.6,-0.28 c1.7400000000000002,0.53 6.44,1.12 7.55,2.67 S785.8100009155273,368.1599996948242 785.5700009155273,370.1499996948242 z" fill="#a1616a" id="svg_71"/><circle cx="694.0399780273438" cy="229.57000732421875" r="36" fill="#a1616a" id="svg_72"/><path d="M684.4100009155273,283.2199996948242 a18.57,18.57 0 0 1 -2.23,8 q27.57,-4.2 55,-9.36 a25.83,25.83 0 0 1 -12.76,-15 a42.36,42.36 0 0 1 -1.62,-10.69 a123.57,123.57 0 0 1 0.33000000000000007,-17.21 c-6.4,0.6700000000000002 -12.46,3.07 -18.56,5.13 a183,183 0 0 1 -18.69,5.23 c-3.05,0.6800000000000002 -6.12,1.26 -9.2,1.8 c-3.6,0.6400000000000001 -5.33,0.6300000000000001 -2.83,3.79 C680.5600009155273,263.3499996948242 685.3500009155273,271.92999969482423 684.4100009155273,283.2199996948242 z" fill="#a1616a" id="svg_73"/><path d="M695.4700009155273,278.4099996948242 c-4.75,0.7100000000000001 -9.73,1.51 -13.52,4.45 a51,51 0 0 0 -4.11,3.95 c-7.53,7.3100000000000005 -18.16,10.25 -27.3,15.41 a12,12 0 0 0 -3.88,3.05 c-1,1.3900000000000001 -1.51,3.16 -2.56,4.54 c-1.22,1.6 -3.15,2.6 -4.1,4.37 s-0.7400000000000001,3.6500000000000004 -0.8400000000000001,5.53 c-0.23,4.13 -1.79,8.05 -3,12 c-5.55,18.91 -2.51,40 -10.91,57.86 a8.13,8.13 0 0 0 4.42,4.62 a25.1,25.1 0 0 0 6.5600000000000005,1.4100000000000001 l18.61,2.31 c2.66,0.33000000000000007 5.48,0.6400000000000001 7.91,-0.47000000000000003 a92.94,92.94 0 0 0 -4.69,18.93 a94.28,94.28 0 0 1 -2.1,11.72 c-2.56,8.8 -9,16.13 -16.63,21.14 a6.15,6.15 0 0 0 -2.35,2.17 c-1,2 0.48000000000000004,4.24 1.53,6.2 c3.05,5.68 2.63,12.5 2.59,18.94 s0.6100000000000001,13.51 5.11,18.13 c2.66,2.73 6.3,4.21 9.84,5.62 l29.11,11.63 a101.45,101.45 0 0 0 14.82,5 c7.67,1.75 15.64,1.6800000000000002 23.51,1.34 q7.8,-0.33000000000000007 15.58,-1 a12.12,12.12 0 0 0 5.890000000000001,-1.55 a11,11 0 0 0 3.45,-4.68 c4.05,-8.81 5.41,-19.09 11.69,-26.47 c4.3100000000000005,-5.07 11,-9.12 11.49,-15.75 c0.23,-3.3 -1.24,-6.51 -1.26,-9.82 c0,-4.07 2.13,-7.94 2,-12 c-0.27,-6.61 -6.5,-11.65 -7.49,-18.19 c-2.52,-16.58 5.9,-33.14 11.07,-49.09 c0.93,-2.85 2.13,-6 4.87,-7.22 s6.6,-0.5800000000000001 7.58,-3.2800000000000002 c2.47,-6.78 3.06,-14.73 2.74,-21.94 c-0.18000000000000002,-4.17 -1.6600000000000001,-8.25 -1.49,-12.43 c0.12000000000000001,-2.94 1.06,-5.8 1.31,-8.73 c0.38000000000000006,-4.43 -0.79,-8.83 -2,-13.11 a20.54,20.54 0 0 0 -1.56,-4.42 a21,21 0 0 0 -2.6,-3.5700000000000003 l-4.87,-5.79 c-2.2800000000000002,-2.71 -4.69,-5.52 -8,-6.890000000000001 c-1.07,-2.6500000000000004 -4.49,-4.48 -6.94,-5.94 a71.12,71.12 0 0 0 -7.640000000000001,-3.75 l-27.54,-12.16 a11.28,11.28 0 0 0 -3.27,-1.06 a10.59,10.59 0 0 0 -4.86,1 C713.2400009155274,273.7499996948242 704.4700009155273,277.0699996948242 695.4700009155273,278.4099996948242 z" fill="#00ca8a" id="svg_74" class="" fill-opacity="1"/><path d="M666.3000009155273,235.8299996948242 c-1.06,-3.73 -3.77,-6.95 -4.18,-10.81 c-0.37000000000000005,-3.43 1.1400000000000001,-6.75 2,-10.09 s0.8300000000000001,-7.42 -1.82,-9.64 c-0.44000000000000006,-0.38000000000000006 -1,-0.7200000000000001 -1.1600000000000001,-1.28 c-0.32000000000000006,-1 0.6900000000000002,-1.9100000000000001 1,-2.92 c0.5700000000000001,-2 -1.9,-4.21 -1,-6.13 c0.51,-1.05 1.79,-1.42 2.91,-1.75 c4.28,-1.27 8.620000000000001,-4.09 9.55,-8.46 c3.35,1.4 6.92,-1.23 9.49,-3.7800000000000002 s5.73,-5.46 9.27,-4.69 l-0.79,1.61 a25.6,25.6 0 0 1 16.93,-0.19000000000000003 l-1.6800000000000002,0 a23.22,23.22 0 0 1 13.39,4.53 c-0.43000000000000005,0 -0.47000000000000003,0.6400000000000001 -0.30000000000000004,1 c1.4,3.27 5,5 8.47,5.8100000000000005 c2.09,0.5 4.36,0.8600000000000001 5.890000000000001,2.36 s1.56,4.63 -0.46,5.35 a52.6,52.6 0 0 1 11.61,6.3 c1,0.7300000000000001 2.13,1.7200000000000002 2,3 a9.76,9.76 0 0 1 -0.6200000000000001,1.87 a6.47,6.47 0 0 0 0.21000000000000002,3.2 l1.11,4.58 c1.22,5.09 2.18,11.22 -1.53,14.91 a13.69,13.69 0 0 1 -2.41,16.16 a6.66,6.66 0 0 1 -5,8.61 c1.23,1.92 0.1,4.66 -1.84,5.86 s-4.38,1.21 -6.640000000000001,1 s-4.55,-0.7200000000000001 -6.8100000000000005,-0.38000000000000006 c-3.29,0.51 -6.51,2.75 -9.68,1.75 a21.73,21.73 0 0 1 -3.39,-1.82 c-2.22,-1.19 -4.8,-1.46 -7.26,-2 a33.54,33.54 0 0 1 -11.73,-5 a13.75,13.75 0 0 1 -5.39,-6 c-2.2,-5.5600000000000005 1.5,-12.85 -2.39,-17.38 c-2.2800000000000002,-2.64 -6.8,-2.68 -9.35,-0.42000000000000004 c-1.27,1.13 -1.44,3.51 -2.7600000000000002,4.36 A17.45,17.45 0 0 1 666.3000009155273,235.8299996948242 z" fill="#464353" id="svg_75"/><path d="M617.3800009155274,522.5699996948242 a16.5,16.5 0 0 1 -3.63,-4 a7.46,7.46 0 0 1 -1.1,-5.17 a14.79,14.79 0 0 0 3.89,12.72 c2.51,2.5700000000000003 7.22,5.09 10.89,4.21 C626.9100009155273,527.3899996948243 619.7100009155273,524.5499996948242 617.3800009155274,522.5699996948242 z" opacity="0.1" id="svg_76"/><path d="M815.2000009155273,361.7199996948242 s-21.32,-12.36 -49.46,3 s-32.83,105.75 -32.83,105.75 S744.4200009155273,562.5599996948242 700.0400009155273,542.0699996948242 c0,0 -81,-25.15 -89.11,-19.61 c0,0 -7.68,0 7.67,3.41 S693.2500009155274,548.0699996948242 693.2500009155274,548.0699996948242 s19.17,6.7 27.29,0 s31.13,0.8600000000000001 34.12,-45.2 a801,801 0 0 1 10.66,-86.56 l7.91,-23.45 z" fill="#565661" id="svg_77"/><path d="M817.7600009155274,504.13999969482427 s-9.38,-93.38 6,-127.07 c13.38,-29.36 -38.36,-15.63 -51.86,-11.63 a9.83,9.83 0 0 0 -5.18,3.7 c-8,11.25 -36.7,56.34 -28.24,116.67 c0,0 3.41,53.73 -17.91,62.25 l65.69,-21.16 c5.33,-1.7200000000000002 10.74,-3.15 16.2,-4.39 C809.4200009155273,520.9299996948242 820.7600009155274,516.4399996948242 817.7600009155274,504.13999969482427 z" fill="#fff" id="svg_78"/><ellipse cx="989.969970703125" cy="670.0700073242188" rx="97.44000244140625" ry="15.649999618530273" fill="#009900" opacity="0.1" id="svg_79" class="" fill-opacity="1"/><rect x="986.8300170898438" y="370.260009765625" width="6.269999980926514" height="141.1699981689453" fill="#535461" id="svg_80"/><path d="M1032.5100009155274,510.99999969482417 l-0.39000000000000007,6.36 l-0.56,9 l-0.23,3.74 l-0.55,9 l-0.24000000000000002,3.74 l-0.56,9 l-6.32,102.07 A17.3,17.3 0 0 1 1006.4000009155272,670.0699996948242 h-32.87 a17.28,17.28 0 0 1 -17.24,-16.22 L949.9500009155273,551.7699996948243 l-0.55,-9 l-0.23,-3.74 l-0.5700000000000001,-9 l-0.23,-3.74 l-0.55,-9 l-0.4,-6.36 a9,9 0 0 1 8.94,-9.51 h67.22 A9,9 0 0 1 1032.5100009155274,510.99999969482417 z" fill="#565661" id="svg_81"/><polygon points="1032.12 517.36 1031.56 526.33 948.38 526.33 947.82 517.36 1032.12 517.36" fill="#9d9cb5" id="svg_82"/><polygon points="1031.33 530.08 1030.78 539.06 949.17 539.06 948.61 530.08 1031.33 530.08" fill="#9d9cb5" id="svg_83"/><polygon points="1030.54 542.8 1029.98 551.77 949.96 551.77 949.4 542.8 1030.54 542.8" fill="#9d9cb5" id="svg_84"/><path d="M938.2400009155274,423.16999969482424 c36.52,26.42 51.73,67.74 51.73,67.74 s-44,-1.51 -80.53,-27.93 s-51.72,-67.73 -51.72,-67.73 S901.7300009155274,396.7599996948242 938.2400009155274,423.16999969482424 z" fill="#00ca8a" id="svg_85" class="" fill-opacity="1"/><path d="M857.7200009155273,395.2499996948242 s45.67,25.35 60.33,46.34 s71.92,49.32 71.92,49.32 " fill="none" stroke="#535461" stroke-miterlimit="10" stroke-width="2" id="svg_86"/><path d="M961.8100009155273,369.9499996948242 c19.88,14.37 28.16,36.87 28.16,36.87 s-24,-0.8300000000000001 -43.83,-15.2 S918.0400009155273,354.7499996948242 918.0400009155273,354.7499996948242 S941.9400009155273,355.5699996948242 961.8100009155273,369.9499996948242 z" fill="#00ca8a" id="svg_87" class="" fill-opacity="1"/><path d="M918.0400009155273,354.7499996948242 s24.86,13.8 32.83,25.22 s39.15,26.85 39.15,26.85 " fill="none" stroke="#535461" stroke-miterlimit="10" stroke-width="2" id="svg_88"/><path d="M1018.8500009155273,405.66999969482424 c-22.83,25.09 -27.66,57.88 -27.66,57.88 s32.19,-7.9 55,-33 s27.66,-57.88 27.66,-57.88 S1041.6800009155274,380.5799996948242 1018.8500009155273,405.66999969482424 z" fill="#00ca8a" id="svg_89" class="" fill-opacity="1"/><path d="M1073.8700009155273,372.67999969482423 s-29.74,25.72 -37.3,43.44 s-45.38,47.43 -45.38,47.43 " fill="none" stroke="#535461" stroke-miterlimit="10" stroke-width="2" id="svg_90"/><path d="M556.9800009155274,345.2699996948242 v2.2800000000000002 H489.3700009155274 v-1.85 a22.72,22.72 0 0 0 5.22,-2.7800000000000002 a22.21,22.21 0 0 0 9.28,-18.06 a21.92,21.92 0 0 0 -0.6900000000000002,-5.47 a22.23,22.23 0 0 0 -12.28,-14.73 h65.62 a22.23,22.23 0 0 0 -12.28,14.73 a21.92,21.92 0 0 0 -0.6800000000000002,5.47 a22.2,22.2 0 0 0 9.27,18.06 A22.87,22.87 0 0 0 556.9800009155274,345.2699996948242 z" fill="#dfe6f5" id="svg_91"/><path d="M556.5200009155274,304.6599996948242 a22.23,22.23 0 0 0 -12.28,14.73 H503.18000091552733 a22.23,22.23 0 0 0 -12.28,-14.73 z" opacity="0.1" id="svg_92"/><path d="M411.96000091552736,293.0099996948242 v12.84 c0,7.08 5.18,12.83 11.58,12.83 H622.4500009155273 c6.4,0 11.59,-5.75 11.59,-12.83 V293.0099996948242 z" fill="#dfe6f5" id="svg_93"/><path d="M556.9800009155274,345.2699996948242 v2.2800000000000002 H489.3700009155274 v-1.85 a22.72,22.72 0 0 0 5.22,-2.7800000000000002 h58.24 A22.87,22.87 0 0 0 556.9800009155274,345.2699996948242 z" opacity="0.1" id="svg_94"/><rect x="467.0299987792969" y="343.6300048828125" width="112.29000091552734" height="6.769999980926514" rx="3.390000104904175" fill="#dfe6f5" id="svg_95"/><path d="M634.0400009155273,152.37999969482422 a11.58,11.58 0 0 0 -11.59,-11.58 H423.54000091552734 a11.57,11.57 0 0 0 -11.58,11.58 V295.5099996948242 H634.0400009155273 z" fill="#474157" id="svg_96"/><path d="M627.9800009155274,157.5499996948242 v123 a5.7,5.7 0 0 1 -5.7,5.71 H423.72000091552735 a5.7,5.7 0 0 1 -5.7,-5.71 v-123 a5.62,5.62 0 0 1 0.7600000000000001,-2.85 a5.7,5.7 0 0 1 4.94,-2.85 H622.2800009155274 A5.7,5.7 0 0 1 627.9800009155274,157.5499996948242 z" fill="#4c4c78" id="svg_97" class="selected"/><circle cx="523" cy="146.32000732421875" r="2.6700000762939453" fill="#fff" id="svg_98"/><circle cx="523" cy="306.3800048828125" r="6.590000152587891" fill="#fff" id="svg_99"/><path d="M627.9800009155274,157.5499996948242 H418.04000091552734 a5.7,5.7 0 0 1 5.7,-5.7 H622.2800009155274 A5.7,5.7 0 0 1 627.9800009155274,157.5499996948242 z" fill="#c8cad7" id="svg_100"/><circle cx="423.7200012207031" cy="154.6999969482422" r="1.4299999475479126" fill="#ededf4" id="svg_101"/><circle cx="428" cy="154.6999969482422" r="1.4299999475479126" fill="#ededf4" id="svg_102"/><circle cx="432.2799987792969" cy="154.6999969482422" r="1.4299999475479126" fill="#ededf4" id="svg_103"/></g></svg>